{"title":"RELOAD-Titan A.E.2000.SWESUB.DVDRip.XviD.AC3.(5.1).-Zen_Bud","uid":5672834,"size":1474396124,"categoryP":"video","categoryS":"movies","magnet":"?xt=urn:btih:dc941ae04e2430437a6ee016cd18a8f2ff14f239&amp;dn=RELOAD-Titan+A.E.2000.SWESUB.DVDRip.XviD.AC3.%285.1%29.-Zen_Bud&amp;tr=udp%3A%2F%2Ftracker.openbittorrent.com%3A80&amp;tr=udp%3A%2F%2Fopen.demonii.com%3A1337&amp;tr=udp%3A%2F%2Ftracker.coppersurfer.tk%3A6969&amp;tr=udp%3A%2F%2Fexodus.desync.com%3A6969","seeders":0,"leechers":2,"uploader":"zyxwvut","files":1,"time":1278375448,"description":"General\nComplete name                    :RELOAD-Titan A.E.avi\nFormat                           : AVI\nFile size                        : 1.37 GiB\nDuration                         : 1h 35mn\nOverall bit rate                 : 2 067 Kbps\n\nVideo\n\nFormat                           : MPEG-4 Visual\nCodec ID/Hint                    : XviD\nDuration                         : 1h 35mn\nBit rate                         : 1 609 Kbps\nWidth                            : 720 pixels\nHeight                           : 576 pixels\nDisplay aspect ratio             : 16:9\nStream size                      : 1.07 GiB (78%)\nWriting library                  : XviD 1.1.2 (UTC 2006-11-01)\n\nAudio\n\nFormat                           : AC-3\nDuration                         : 1h 35mn\nBit rate                         : 448 Kbps\nChannel(s)                       : 6 channels\nChannel positions                : Front: L C R, Side: L R, LFE\nSampling rate                    : 48.0 KHz\nStream size                      : 304 MiB (22%)\n\n","torrent":{"xt":"urn:btih:dc941ae04e2430437a6ee016cd18a8f2ff14f239","amp;dn":"RELOAD-Titan+A.E.2000.SWESUB.DVDRip.XviD.AC3.%285.1%29.-Zen_Bud","amp;tr":["udp%3A%2F%2Ftracker.openbittorrent.com%3A80","udp%3A%2F%2Fopen.demonii.com%3A1337","udp%3A%2F%2Ftracker.coppersurfer.tk%3A6969","udp%3A%2F%2Fexodus.desync.com%3A6969"],"infoHash":"dc941ae04e2430437a6ee016cd18a8f2ff14f239","infoHashBuffer":{"type":"Buffer","data":[220,148,26,224,78,36,48,67,122,110,224,22,205,24,168,242,255,20,242,57]},"announce":[],"urlList":[]}}